<?xml version="1.0" encoding="UTF-8" standalone="no"?>
<!-- Created with Inkscape (http://www.inkscape.org/) -->

<svg
   width="2.0999999in"
   height="2.55in"
   viewBox="0 0 53.339999 64.769999"
   version="1.1"
   id="svg5"
   inkscape:version="1.1 (c4e8f9e, 2021-05-24)"
   sodipodi:docname="logo.svg"
   inkscape:export-filename="/Users/mhturner/Dropbox/TurnerLab/lab_icon.png"
   inkscape:export-xdpi="200"
   inkscape:export-ydpi="200"
   xmlns:inkscape="http://www.inkscape.org/namespaces/inkscape"
   xmlns:sodipodi="http://sodipodi.sourceforge.net/DTD/sodipodi-0.dtd"
   xmlns="http://www.w3.org/2000/svg"
   xmlns:svg="http://www.w3.org/2000/svg">
  <sodipodi:namedview
     id="namedview7"
     pagecolor="#ffffff"
     bordercolor="#666666"
     borderopacity="1.0"
     inkscape:pageshadow="2"
     inkscape:pageopacity="0.0"
     inkscape:pagecheckerboard="0"
     inkscape:document-units="mm"
     showgrid="false"
     inkscape:zoom="0.79244965"
     inkscape:cx="178.56024"
     inkscape:cy="52.369258"
     inkscape:window-width="1312"
     inkscape:window-height="783"
     inkscape:window-x="46"
     inkscape:window-y="25"
     inkscape:window-maximized="0"
     inkscape:current-layer="layer1"
     units="in" />
  <defs
     id="defs2" />
  <g
     inkscape:label="Layer 1"
     inkscape:groupmode="layer"
     id="layer1">
    <path
       sodipodi:type="star"
       style="fill:none;stroke:#000000;stroke-width:7.55906;stroke-linecap:round;stroke-linejoin:round;stroke-miterlimit:4;stroke-dasharray:none;stroke-opacity:1;paint-order:stroke markers fill"
       id="path894-7"
       inkscape:flatsided="true"
       sodipodi:sides="6"
       sodipodi:cx="189.16866"
       sodipodi:cy="308.73752"
       sodipodi:r1="55.092155"
       sodipodi:r2="47.711208"
       sodipodi:arg1="1.0471976"
       sodipodi:arg2="1.5707963"
       inkscape:rounded="0"
       inkscape:randomized="0"
       transform="matrix(0.26458333,0,0,0.26458333,-12.490417,-30.098699)"
       inkscape:transform-center-y="-1.0291251e-06"
       d="m 216.71473,356.44873 -55.09215,-1e-5 -27.54608,-47.7112 27.54608,-47.71121 55.09216,0 27.54607,47.71121 z" />
    <path
       d="m 33.327118,55.292238 h -1.85208 v 1.5875 h 1.85208 a 5.0032708,5.0032708 0 0 0 3.43959,-1.37054 v 4.280957 h 1.5875 v -4.280957 a 5.0032708,5.0032708 0 0 0 3.439583,1.37054 h 1.85208 v -1.5875 h -1.85208 a 3.4395833,3.4395833 0 0 1 -3.439583,-3.439577 v -0.57679 a 5.0032708,5.0032708 0 0 0 3.439583,1.37054 h 0.79375 v -1.5875 h -0.79375 a 3.4395833,3.4395833 0 0 1 -3.439583,-3.439587 v -0.57679 a 5.0032708,5.0032708 0 0 0 3.439583,1.37054 v -1.5875 a 3.4395833,3.4395833 0 0 1 -3.439583,-3.43958 h -1.5875 a 3.4395833,3.4395833 0 0 1 -3.43959,3.43958 v 1.5875 a 5.0032708,5.0032708 0 0 0 3.43959,-1.37054 v 0.57679 a 3.4395833,3.4395833 0 0 1 -3.43959,3.439587 h -0.79375 v 1.5875 h 0.79375 a 5.0032708,5.0032708 0 0 0 3.43959,-1.37054 v 0.57679 a 3.4395833,3.4395833 0 0 1 -3.43959,3.439577 z"
       id="path1170-5"
       style="fill:#165154;fill-opacity:1;stroke:none;stroke-width:0.264583" />
    <path
       sodipodi:type="star"
       style="fill:none;stroke:#000000;stroke-width:7.55906;stroke-linecap:round;stroke-linejoin:round;stroke-miterlimit:4;stroke-dasharray:none;stroke-opacity:1;paint-order:stroke markers fill"
       id="path894-7-1"
       inkscape:flatsided="true"
       sodipodi:sides="6"
       sodipodi:cx="189.16866"
       sodipodi:cy="308.73752"
       sodipodi:r1="55.092155"
       sodipodi:r2="47.711208"
       sodipodi:arg1="1.0471976"
       sodipodi:arg2="1.5707963"
       inkscape:rounded="0"
       inkscape:randomized="0"
       transform="matrix(0.26458333,0,0,0.26458333,-34.355116,-42.722289)"
       inkscape:transform-center-y="-1.0291251e-06"
       d="m 216.71473,356.44873 -55.09215,-1e-5 -27.54608,-47.7112 27.54608,-47.71121 55.09216,0 27.54607,47.71121 z" />
    <path
       d="M 11.46242,42.668657 H 9.6103403 v 1.587497 H 11.46242 a 5.0032708,5.0032708 0 0 0 3.43959,-1.370537 v 4.280957 h 1.5875 v -4.280957 a 5.0032708,5.0032708 0 0 0 3.439583,1.370537 h 1.85208 v -1.587497 h -1.85208 a 3.4395833,3.4395833 0 0 1 -3.439583,-3.43958 v -0.57679 a 5.0032708,5.0032708 0 0 0 3.439583,1.37054 h 0.79375 v -1.5875 h -0.79375 A 3.4395833,3.4395833 0 0 1 16.48951,34.99574 v -0.57679 a 5.0032708,5.0032708 0 0 0 3.439583,1.37054 v -1.5875 A 3.4395833,3.4395833 0 0 1 16.48951,30.762413 h -1.5875 a 3.4395833,3.4395833 0 0 1 -3.43959,3.439577 v 1.5875 a 5.0032708,5.0032708 0 0 0 3.43959,-1.37054 v 0.57679 a 3.4395833,3.4395833 0 0 1 -3.43959,3.439587 h -0.79375 v 1.5875 h 0.79375 a 5.0032708,5.0032708 0 0 0 3.43959,-1.37054 v 0.57679 a 3.4395833,3.4395833 0 0 1 -3.43959,3.43958 z"
       id="path1170-5-3"
       style="fill:#b1343c;fill-opacity:1;stroke:none;stroke-width:0.264583" />
    <path
       sodipodi:type="star"
       style="fill:none;stroke:#000000;stroke-width:7.55906;stroke-linecap:round;stroke-linejoin:round;stroke-miterlimit:4;stroke-dasharray:none;stroke-opacity:1;paint-order:stroke markers fill"
       id="path894-7-1-5"
       inkscape:flatsided="true"
       sodipodi:sides="6"
       sodipodi:cx="189.16866"
       sodipodi:cy="308.73752"
       sodipodi:r1="55.092155"
       sodipodi:r2="47.711208"
       sodipodi:arg1="1.0471976"
       sodipodi:arg2="1.5707963"
       inkscape:rounded="0"
       inkscape:randomized="0"
       transform="matrix(0.26458333,0,0,0.26458333,-12.490415,-55.345878)"
       inkscape:transform-center-y="-1.0291251e-06"
       d="m 216.71473,356.44873 -55.09215,-1e-5 -27.54608,-47.7112 27.54608,-47.71121 55.09216,0 27.54607,47.71121 z" />
    <path
       d="m 33.32712,30.045073 h -1.85208 v 1.5875 h 1.85208 a 5.0032708,5.0032708 0 0 0 3.43959,-1.37054 v 4.280957 h 1.5875 v -4.280957 a 5.0032708,5.0032708 0 0 0 3.439581,1.37054 h 1.85208 v -1.5875 h -1.85208 A 3.4395833,3.4395833 0 0 1 38.35421,26.605496 v -0.57679 a 5.0032708,5.0032708 0 0 0 3.439581,1.37054 h 0.79375 v -1.5875 h -0.79375 a 3.4395833,3.4395833 0 0 1 -3.439581,-3.43959 v -0.576787 a 5.0032708,5.0032708 0 0 0 3.439581,1.370537 v -1.587497 a 3.4395833,3.4395833 0 0 1 -3.439581,-3.43958 h -1.5875 a 3.4395833,3.4395833 0 0 1 -3.43959,3.43958 v 1.587497 a 5.0032708,5.0032708 0 0 0 3.43959,-1.370537 v 0.576787 a 3.4395833,3.4395833 0 0 1 -3.43959,3.43959 h -0.79375 v 1.5875 h 0.79375 a 5.0032708,5.0032708 0 0 0 3.43959,-1.37054 v 0.57679 a 3.4395833,3.4395833 0 0 1 -3.43959,3.439577 z"
       id="path1170-5-3-8"
       style="fill:#b19cde;fill-opacity:1;stroke:none;stroke-width:0.264583;stroke-opacity:1" />
    <path
       sodipodi:type="star"
       style="fill:none;stroke:#000000;stroke-width:7.55906;stroke-linecap:round;stroke-linejoin:round;stroke-miterlimit:4;stroke-dasharray:none;stroke-opacity:1;paint-order:stroke markers fill"
       id="path894-7-1-5-6"
       inkscape:flatsided="true"
       sodipodi:sides="6"
       sodipodi:cx="189.16866"
       sodipodi:cy="308.73752"
       sodipodi:r1="55.092155"
       sodipodi:r2="47.711208"
       sodipodi:arg1="1.0471976"
       sodipodi:arg2="1.5707963"
       inkscape:rounded="0"
       inkscape:randomized="0"
       transform="matrix(0.26458333,0,0,0.26458333,-34.355115,-67.969469)"
       inkscape:transform-center-y="-1.0291251e-06"
       d="m 216.71473,356.44873 -55.09215,-1e-5 -27.54608,-47.7112 27.54608,-47.71121 55.09216,0 27.54607,47.71121 z" />
    <path
       d="M 11.462421,17.421489 H 9.6103413 v 1.5875 h 1.8520797 a 5.0032708,5.0032708 0 0 0 3.43959,-1.37054 v 4.28096 h 1.5875 v -4.28096 a 5.0032708,5.0032708 0 0 0 3.439583,1.37054 h 1.85208 v -1.5875 h -1.85208 a 3.4395833,3.4395833 0 0 1 -3.439583,-3.439577 v -0.57679 a 5.0032708,5.0032708 0 0 0 3.439583,1.37054 h 0.79375 v -1.5875 h -0.79375 A 3.4395833,3.4395833 0 0 1 16.489511,9.7485743 V 9.1717846 a 5.0032708,5.0032708 0 0 0 3.439583,1.3705404 V 8.9548246 A 3.4395833,3.4395833 0 0 1 16.489511,5.5152477 h -1.5875 a 3.4395833,3.4395833 0 0 1 -3.43959,3.4395769 v 1.5875004 a 5.0032708,5.0032708 0 0 0 3.43959,-1.3705404 v 0.5767897 a 3.4395833,3.4395833 0 0 1 -3.43959,3.4395877 h -0.79375 v 1.5875 h 0.79375 a 5.0032708,5.0032708 0 0 0 3.43959,-1.37054 v 0.57679 a 3.4395833,3.4395833 0 0 1 -3.43959,3.439577 z"
       id="path1170-5-3-8-7"
       style="fill:#6883bb;fill-opacity:1;stroke:none;stroke-width:0.264583;stroke-opacity:1" />
  </g>
</svg>
