<?xml version="1.0" encoding="UTF-8" standalone="no"?>
<!-- Created with Inkscape (http://www.inkscape.org/) -->

<svg
   width="6in"
   height="3in"
   viewBox="0 0 152.4 76.2"
   version="1.1"
   id="svg5"
   inkscape:version="1.1 (c4e8f9e, 2021-05-24)"
   sodipodi:docname="share.svg"
   inkscape:export-filename="/Users/mhturner/Dropbox/TurnerLab/share.png"
   inkscape:export-xdpi="200"
   inkscape:export-ydpi="200"
   xmlns:inkscape="http://www.inkscape.org/namespaces/inkscape"
   xmlns:sodipodi="http://sodipodi.sourceforge.net/DTD/sodipodi-0.dtd"
   xmlns="http://www.w3.org/2000/svg"
   xmlns:svg="http://www.w3.org/2000/svg">
  <sodipodi:namedview
     id="namedview7"
     pagecolor="#ffffff"
     bordercolor="#666666"
     borderopacity="1.0"
     inkscape:pageshadow="2"
     inkscape:pageopacity="0"
     inkscape:pagecheckerboard="0"
     inkscape:document-units="mm"
     showgrid="false"
     inkscape:zoom="0.79244965"
     inkscape:cx="278.25112"
     inkscape:cy="57.416897"
     inkscape:window-width="1312"
     inkscape:window-height="783"
     inkscape:window-x="46"
     inkscape:window-y="25"
     inkscape:window-maximized="0"
     inkscape:current-layer="layer1"
     units="in" />
  <defs
     id="defs2" />
  <g
     inkscape:label="Layer 1"
     inkscape:groupmode="layer"
     id="layer1">
    <rect
       style="fill:#000000;fill-opacity:1;stroke:none;stroke-width:2;stroke-linecap:round;stroke-linejoin:round;stroke-opacity:1;paint-order:stroke markers fill"
       id="rect15741"
       width="150.91389"
       height="75.456947"
       x="0.33388031"
       y="0" />
    <path
       sodipodi:type="star"
       style="fill:#fefefe;fill-opacity:1;stroke:#000000;stroke-width:7.55906;stroke-linecap:round;stroke-linejoin:round;stroke-miterlimit:4;stroke-dasharray:none;stroke-opacity:1;paint-order:stroke markers fill"
       id="path894-7"
       inkscape:flatsided="true"
       sodipodi:sides="6"
       sodipodi:cx="189.16866"
       sodipodi:cy="308.73752"
       sodipodi:r1="55.092155"
       sodipodi:r2="47.711208"
       sodipodi:arg1="1.0471976"
       sodipodi:arg2="1.5707963"
       inkscape:rounded="0"
       inkscape:randomized="0"
       transform="matrix(0.26458333,0,0,0.26458333,1.2679166,-24.277865)"
       inkscape:transform-center-y="-1.0291251e-06"
       d="m 216.71473,356.44873 -55.09215,-1e-5 -27.54608,-47.7112 27.54608,-47.71121 55.09216,0 27.54607,47.71121 z" />
    <path
       d="m 47.085454,61.113072 h -1.85208 v 1.5875 h 1.85208 a 5.0032708,5.0032708 0 0 0 3.43959,-1.37054 v 4.280957 h 1.5875 v -4.280957 a 5.0032708,5.0032708 0 0 0 3.439583,1.37054 h 1.85208 v -1.5875 h -1.85208 a 3.4395833,3.4395833 0 0 1 -3.439583,-3.439577 v -0.57679 a 5.0032708,5.0032708 0 0 0 3.439583,1.37054 h 0.79375 v -1.5875 h -0.79375 a 3.4395833,3.4395833 0 0 1 -3.439583,-3.439587 v -0.57679 a 5.0032708,5.0032708 0 0 0 3.439583,1.37054 v -1.5875 a 3.4395833,3.4395833 0 0 1 -3.439583,-3.43958 h -1.5875 a 3.4395833,3.4395833 0 0 1 -3.43959,3.43958 v 1.5875 a 5.0032708,5.0032708 0 0 0 3.43959,-1.37054 v 0.57679 a 3.4395833,3.4395833 0 0 1 -3.43959,3.439587 h -0.79375 v 1.5875 h 0.79375 a 5.0032708,5.0032708 0 0 0 3.43959,-1.37054 v 0.57679 a 3.4395833,3.4395833 0 0 1 -3.43959,3.439577 z"
       id="path1170-5"
       style="fill:#165154;fill-opacity:1;stroke:none;stroke-width:0.264583" />
    <path
       sodipodi:type="star"
       style="fill:#fefefe;fill-opacity:1;stroke:#000000;stroke-width:7.55906;stroke-linecap:round;stroke-linejoin:round;stroke-miterlimit:4;stroke-dasharray:none;stroke-opacity:1;paint-order:stroke markers fill"
       id="path894-7-1"
       inkscape:flatsided="true"
       sodipodi:sides="6"
       sodipodi:cx="189.16866"
       sodipodi:cy="308.73752"
       sodipodi:r1="55.092155"
       sodipodi:r2="47.711208"
       sodipodi:arg1="1.0471976"
       sodipodi:arg2="1.5707963"
       inkscape:rounded="0"
       inkscape:randomized="0"
       transform="matrix(0.26458333,0,0,0.26458333,-20.59678,-36.901455)"
       inkscape:transform-center-y="-1.0291251e-06"
       d="m 216.71473,356.44873 -55.09215,-1e-5 -27.54608,-47.7112 27.54608,-47.71121 55.09216,0 27.54607,47.71121 z" />
    <path
       d="m 25.220756,48.489491 h -1.85208 v 1.587497 h 1.85208 a 5.0032708,5.0032708 0 0 0 3.43959,-1.370537 v 4.280957 h 1.5875 v -4.280957 a 5.0032708,5.0032708 0 0 0 3.439583,1.370537 h 1.85208 v -1.587497 h -1.85208 a 3.4395833,3.4395833 0 0 1 -3.439583,-3.43958 v -0.57679 a 5.0032708,5.0032708 0 0 0 3.439583,1.37054 h 0.79375 v -1.5875 h -0.79375 a 3.4395833,3.4395833 0 0 1 -3.439583,-3.439587 v -0.57679 a 5.0032708,5.0032708 0 0 0 3.439583,1.37054 v -1.5875 a 3.4395833,3.4395833 0 0 1 -3.439583,-3.439577 h -1.5875 a 3.4395833,3.4395833 0 0 1 -3.43959,3.439577 v 1.5875 a 5.0032708,5.0032708 0 0 0 3.43959,-1.37054 v 0.57679 a 3.4395833,3.4395833 0 0 1 -3.43959,3.439587 h -0.79375 v 1.5875 h 0.79375 a 5.0032708,5.0032708 0 0 0 3.43959,-1.37054 v 0.57679 a 3.4395833,3.4395833 0 0 1 -3.43959,3.43958 z"
       id="path1170-5-3"
       style="fill:#3334d0;fill-opacity:1;stroke:none;stroke-width:0.264583" />
    <path
       sodipodi:type="star"
       style="fill:#fefefe;fill-opacity:1;stroke:#000000;stroke-width:7.55906;stroke-linecap:round;stroke-linejoin:round;stroke-miterlimit:4;stroke-dasharray:none;stroke-opacity:1;paint-order:stroke markers fill"
       id="path894-7-1-5"
       inkscape:flatsided="true"
       sodipodi:sides="6"
       sodipodi:cx="189.16866"
       sodipodi:cy="308.73752"
       sodipodi:r1="55.092155"
       sodipodi:r2="47.711208"
       sodipodi:arg1="1.0471976"
       sodipodi:arg2="1.5707963"
       inkscape:rounded="0"
       inkscape:randomized="0"
       transform="matrix(0.26458333,0,0,0.26458333,1.2679186,-49.525044)"
       inkscape:transform-center-y="-1.0291251e-06"
       d="m 216.71473,356.44873 -55.09215,-1e-5 -27.54608,-47.7112 27.54608,-47.71121 55.09216,0 27.54607,47.71121 z" />
    <path
       d="m 47.085456,35.865907 h -1.85208 v 1.5875 h 1.85208 a 5.0032708,5.0032708 0 0 0 3.43959,-1.37054 v 4.280957 h 1.5875 v -4.280957 a 5.0032708,5.0032708 0 0 0 3.439581,1.37054 h 1.85208 v -1.5875 h -1.85208 A 3.4395833,3.4395833 0 0 1 52.112546,32.42633 v -0.57679 a 5.0032708,5.0032708 0 0 0 3.439581,1.37054 h 0.79375 v -1.5875 h -0.79375 a 3.4395833,3.4395833 0 0 1 -3.439581,-3.43959 v -0.576787 a 5.0032708,5.0032708 0 0 0 3.439581,1.370537 v -1.587497 a 3.4395833,3.4395833 0 0 1 -3.439581,-3.43958 h -1.5875 a 3.4395833,3.4395833 0 0 1 -3.43959,3.43958 v 1.587497 a 5.0032708,5.0032708 0 0 0 3.43959,-1.370537 v 0.576787 a 3.4395833,3.4395833 0 0 1 -3.43959,3.43959 h -0.79375 v 1.5875 h 0.79375 a 5.0032708,5.0032708 0 0 0 3.43959,-1.37054 v 0.57679 a 3.4395833,3.4395833 0 0 1 -3.43959,3.439577 z"
       id="path1170-5-3-8"
       style="fill:#b19cde;fill-opacity:1;stroke:none;stroke-width:0.264583;stroke-opacity:1" />
    <path
       sodipodi:type="star"
       style="fill:#fefefe;fill-opacity:1;stroke:#000000;stroke-width:7.55906;stroke-linecap:round;stroke-linejoin:round;stroke-miterlimit:4;stroke-dasharray:none;stroke-opacity:1;paint-order:stroke markers fill"
       id="path894-7-1-5-6"
       inkscape:flatsided="true"
       sodipodi:sides="6"
       sodipodi:cx="189.16866"
       sodipodi:cy="308.73752"
       sodipodi:r1="55.092155"
       sodipodi:r2="47.711208"
       sodipodi:arg1="1.0471976"
       sodipodi:arg2="1.5707963"
       inkscape:rounded="0"
       inkscape:randomized="0"
       transform="matrix(0.26458333,0,0,0.26458333,-20.596779,-62.148635)"
       inkscape:transform-center-y="-1.0291251e-06"
       d="m 216.71473,356.44873 -55.09215,-1e-5 -27.54608,-47.7112 27.54608,-47.71121 55.09216,0 27.54607,47.71121 z" />
    <path
       d="m 25.220757,23.242323 h -1.85208 v 1.5875 h 1.85208 a 5.0032708,5.0032708 0 0 0 3.43959,-1.37054 v 4.28096 h 1.5875 v -4.28096 a 5.0032708,5.0032708 0 0 0 3.439583,1.37054 h 1.85208 v -1.5875 h -1.85208 a 3.4395833,3.4395833 0 0 1 -3.439583,-3.439577 v -0.57679 a 5.0032708,5.0032708 0 0 0 3.439583,1.37054 h 0.79375 v -1.5875 h -0.79375 a 3.4395833,3.4395833 0 0 1 -3.439583,-3.439588 v -0.57679 a 5.0032708,5.0032708 0 0 0 3.439583,1.370541 v -1.587501 a 3.4395833,3.4395833 0 0 1 -3.439583,-3.439577 h -1.5875 a 3.4395833,3.4395833 0 0 1 -3.43959,3.439577 v 1.587501 a 5.0032708,5.0032708 0 0 0 3.43959,-1.370541 v 0.57679 a 3.4395833,3.4395833 0 0 1 -3.43959,3.439588 h -0.79375 v 1.5875 h 0.79375 a 5.0032708,5.0032708 0 0 0 3.43959,-1.37054 v 0.57679 a 3.4395833,3.4395833 0 0 1 -3.43959,3.439577 z"
       id="path1170-5-3-8-7"
       style="fill:#6883bb;fill-opacity:1;stroke:none;stroke-width:0.264583;stroke-opacity:1" />
    <text
       xml:space="preserve"
       style="font-weight:bold;font-size:14.1111px;line-height:1.25;font-family:Arial;-inkscape-font-specification:'Arial Bold';stroke-width:0.264583"
       x="72.155891"
       y="34.238415"
       id="text1150"><tspan
         sodipodi:role="line"
         id="tspan1148"
         style="font-style:normal;font-variant:normal;font-weight:bold;font-stretch:normal;font-size:14.1111px;font-family:'Bangla Sangam MN';-inkscape-font-specification:'Bangla Sangam MN Bold';fill:#ffffff;fill-opacity:1;stroke:#ffffff;stroke-width:0.264583;stroke-opacity:1"
         x="72.155891"
         y="34.238415">Turner Lab</tspan></text>
    <text
       xml:space="preserve"
       style="font-weight:bold;font-size:10.5833px;line-height:1.25;font-family:Arial;-inkscape-font-specification:'Arial Bold';stroke-width:0.264583"
       x="79.888405"
       y="45.744579"
       id="text1150-4"><tspan
         sodipodi:role="line"
         id="tspan1148-4"
         style="font-style:normal;font-variant:normal;font-weight:normal;font-stretch:normal;font-family:Arial;-inkscape-font-specification:Arial;fill:#ffffff;fill-opacity:1;stroke:#ffffff;stroke-width:0.264583;stroke-opacity:1"
         x="79.888405"
         y="45.744579">at UAlbany</tspan></text>
  </g>
</svg>
